# Blender v2.57 (sub 0) OBJ File: 'corridor_master.blend'
# www.blender.org
mtllib room_floorConnector.mtl
g Plane.048_Plane.119
v -3.000000 0.000000 2.000000
v -3.000000 0.000000 6.000000
v -4.000000 0.000000 6.000000
v -4.000000 0.000000 2.000000
v -3.000000 -1.000000 2.000000
v -3.000000 -1.000000 6.000000
vt 1.000000 0.500000
vt 1.000000 0.999999
vt 0.000000 1.000000
vt 0.000000 0.500000
vt 0.000000 0.000000
vt 1.000000 0.000000
vn 0.000000 1.000000 -0.000000
vn 1.000000 -0.000000 0.000000
usemtl None_untitled.009
s off
f 1/1/1 4/2/1 3/3/1 2/4/1
f 1/1/2 2/4/2 6/5/2 5/6/2
