# Blender v2.57 (sub 0) OBJ File: 'corridor_master.blend'
# www.blender.org
mtllib corridor_floorCorner.mtl
g Plane.002_Plane.007
v -4.000000 -0.200000 -2.000000
v -3.800000 -0.200000 -2.000000
v -3.800000 -0.200000 2.000000
v -4.000000 -0.200000 2.000000
v -3.999999 0.100000 -2.000000
v -3.799999 0.100000 -1.999999
v -3.800000 0.100000 2.000000
v -4.000000 0.100000 2.000000
v 1.000000 -0.200000 -3.000000
v 1.000000 -0.200000 -2.800000
v -3.000000 -0.200000 -2.800000
v -3.000000 -0.200000 -3.000000
v 1.000000 0.100000 -3.000000
v 0.999999 0.100000 -2.799999
v -3.000000 0.100000 -2.800000
v -3.000000 0.100000 -3.000000
v -4.000001 -0.000000 -1.999998
v -3.200001 -0.000000 -1.999999
v -3.199998 0.000000 2.000001
v -3.999999 0.000000 2.000001
v -3.200000 -0.000000 -0.666665
v -3.199999 0.000000 0.666668
v -4.000000 -0.000000 -0.666665
v -3.999999 0.000000 0.666668
v -3.199999 -1.000000 0.222224
v -3.200000 -1.000000 -0.222221
v -4.000000 -1.000000 0.222224
v -4.000000 -1.000000 -0.222220
v 1.000000 -0.000000 -3.000000
v 1.000000 -0.000000 -2.200000
v -3.000000 -0.000000 -2.200000
v -3.000000 -0.000000 -3.000000
v -0.333333 -0.000000 -2.200000
v -1.666667 -0.000000 -2.200000
v -0.333333 -0.000000 -3.000000
v -1.666667 -0.000000 -3.000000
v -1.222222 -1.000000 -2.200000
v -0.777778 -1.000000 -2.200000
v -1.222222 -1.000000 -3.000000
v -0.777778 -1.000000 -3.000000
v 0.300002 0.000000 2.000001
v 1.000000 0.000000 1.300000
vt 0.556246 0.915790
vt 0.124126 0.915790
vt 0.124126 0.894184
vt 0.556245 0.894184
vt 0.556245 0.861775
vt 0.124126 0.861775
vt 0.556246 0.948199
vt 0.124126 0.948199
vt 0.556246 0.829365
vt 0.124126 0.829366
vt 0.124126 0.807760
vt 0.556245 0.807759
vt 0.556245 0.775350
vt 0.124126 0.775351
vt 0.556246 0.861774
vt 0.772739 0.290846
vt 0.681975 0.108917
vt 0.736553 0.000000
vt 0.827318 0.181929
vt 0.090930 0.768358
vt 0.000000 0.586499
vt 0.054558 0.477383
vt 0.145487 0.659242
vt 0.924690 0.817052
vt 0.869303 0.853818
vt 0.853438 0.763222
vt 0.911701 0.735172
vt 0.845678 0.873730
vt 0.829489 0.790927
vt 0.783155 0.914474
vt 0.768262 0.823058
vt 0.681975 0.586497
vt 0.591045 0.768358
vt 0.536487 0.659242
vt 0.627416 0.477382
vt 1.000000 0.109316
vt 0.909286 0.290846
vt 0.854827 0.181989
vt 0.945541 0.000460
vt 0.818962 0.292472
vt 0.872376 0.354377
vt 0.849213 0.427321
vt 0.796335 0.370569
vt 0.893824 0.384036
vt 0.867457 0.461237
vt 0.943419 0.443736
vt 0.922690 0.516620
vt 0.293249 0.000000
vt 0.388725 0.000000
vn 0.000000 1.000000 -0.000000
vn 1.000000 -0.000000 0.000000
vn -1.000000 0.000002 -0.000000
vn -0.000000 -0.000001 1.000000
vn 0.000000 0.000002 -1.000000
vn 0.000001 0.406139 0.913812
vn -0.000000 0.406138 -0.913812
vn -0.913812 0.406138 -0.000000
vn 0.913812 0.406138 0.000000
vn 0.674579 0.299813 0.674578
vn -0.674579 0.299813 -0.674578
usemtl None_untitled.004
s off
f 5/1/1 8/2/1 7/3/1 6/4/1
f 2/5/2 6/4/2 7/3/2 3/6/2
f 5/1/3 1/7/3 4/8/3 8/2/3
f 13/9/1 16/10/1 15/11/1 14/12/1
f 10/13/4 14/12/4 15/11/4 11/14/4
f 13/9/5 9/15/5 12/6/5 16/10/5
f 17/16/1 23/17/1 21/18/1 18/19/1
f 24/20/1 20/21/1 19/22/1 22/23/1
f 23/24/6 28/25/6 26/26/6 21/27/6
f 28/25/1 27/28/1 25/29/1 26/26/1
f 27/28/7 24/30/7 22/31/7 25/29/7
f 29/32/1 35/33/1 33/34/1 30/35/1
f 36/36/1 32/37/1 31/38/1 34/39/1
f 35/40/8 40/41/8 38/42/8 33/43/8
f 40/41/1 39/44/1 37/45/1 38/42/1
f 39/44/9 36/46/9 34/47/9 37/45/9
f 18/19/1 21/18/1 34/39/1 31/38/1
f 21/27/10 26/26/10 37/45/10 34/47/10
f 25/29/1 38/42/1 37/45/1 26/26/1
f 22/31/11 33/43/11 38/42/11 25/29/11
f 19/22/1 30/35/1 33/34/1 22/23/1
f 30/35/1 19/22/1 41/48/1 42/49/1
