# Blender v2.57 (sub 0) OBJ File: 'bigGuy.blend'
# www.blender.org
mtllib grenade.mtl
o Cylinder.009_Cylinder.003
v -0.979079 -0.727154 3.073805
v -0.979079 -0.813715 3.091023
v -0.979079 -0.887098 3.140056
v -0.979079 -0.936131 3.213439
v -0.979079 -0.953349 3.300000
v -0.979079 -0.936131 3.386561
v -0.979079 -0.887098 3.459944
v -0.979079 -0.813715 3.508977
v -0.979079 -0.727154 3.526195
v -0.979079 -0.640592 3.508977
v -0.979079 -0.567209 3.459944
v -0.979079 -0.518176 3.386561
v -0.979079 -0.500958 3.300000
v -0.979079 -0.518176 3.213439
v -0.979079 -0.567209 3.140056
v -0.979079 -0.640593 3.091023
v -0.179480 -0.727154 3.073805
v -0.179480 -0.813715 3.091023
v -0.179480 -0.887098 3.140056
v -0.179480 -0.936131 3.213439
v -0.179480 -0.953349 3.300000
v -0.179480 -0.936131 3.386561
v -0.179480 -0.887097 3.459944
v -0.179480 -0.813714 3.508977
v -0.179480 -0.727153 3.526195
v -0.179480 -0.640592 3.508977
v -0.179480 -0.567209 3.459944
v -0.179480 -0.518176 3.386561
v -0.179480 -0.500958 3.299999
v -0.179480 -0.518177 3.213438
v -0.179480 -0.567210 3.140055
v -0.179480 -0.640593 3.091022
v -0.179480 -0.727154 3.300000
v -1.193537 -0.727154 3.148797
v -1.193537 -0.669291 3.160307
v -1.193537 -0.620237 3.193084
v -1.193537 -0.587461 3.242137
v -1.193537 -0.575951 3.300000
v -1.193537 -0.587461 3.357863
v -1.193537 -0.620237 3.406916
v -1.193537 -0.669291 3.439693
v -1.193537 -0.727154 3.451203
v -1.193537 -0.785016 3.439693
v -1.193537 -0.834070 3.406916
v -1.193537 -0.866847 3.357863
v -1.193537 -0.878356 3.300000
v -1.193537 -0.866847 3.242137
v -1.193537 -0.834070 3.193084
v -1.193537 -0.785016 3.160307
v -1.257699 -0.727154 3.211628
v -1.257699 -0.760972 3.218355
v -1.257699 -0.789642 3.237511
v -1.257699 -0.808799 3.266181
v -1.257699 -0.815526 3.300000
v -1.257699 -0.808799 3.333818
v -1.257699 -0.789642 3.362489
v -1.257699 -0.760972 3.381645
v -1.257699 -0.727154 3.388372
v -1.257699 -0.693335 3.381645
v -1.257699 -0.664665 3.362489
v -1.257699 -0.645509 3.333818
v -1.257699 -0.638782 3.300000
v -1.257699 -0.645509 3.266181
v -1.257699 -0.664665 3.237511
v -1.257699 -0.693335 3.218355
v -1.257699 -0.727154 3.300000
vt 0.816499 0.814173
vt 0.787592 0.959499
vt 0.734178 0.937374
vt 0.845406 0.959499
vt 0.898820 0.937374
vt 0.939701 0.896494
vt 0.961826 0.843080
vt 0.961826 0.785265
vt 0.939701 0.731852
vt 0.898820 0.690971
vt 0.845407 0.668846
vt 0.787592 0.668846
vt 0.734178 0.690971
vt 0.693297 0.731852
vt 0.671173 0.785265
vt 0.671173 0.843080
vt 0.693298 0.896494
vt 0.544827 0.206985
vt 0.544827 0.628833
vt 0.501556 0.628833
vt 0.501556 0.206985
vt 0.457554 0.628833
vt 0.457554 0.206985
vt 0.413131 0.628833
vt 0.413131 0.206985
vt 0.368391 0.628833
vt 0.368391 0.206985
vt 0.323733 0.628833
vt 0.323733 0.206985
vt 0.279657 0.628833
vt 0.279657 0.206985
vt 0.235713 0.628833
vt 0.235713 0.206985
vt 0.192055 0.628833
vt 0.192055 0.206985
vt 0.148867 0.628833
vt 0.148867 0.206985
vt 0.106348 0.628833
vt 0.106348 0.206985
vt 0.064187 0.628833
vt 0.064187 0.206985
vt 0.024967 0.628833
vt 0.024967 0.206985
vt 0.710853 0.206985
vt 0.710853 0.628833
vt 0.671555 0.628833
vt 0.671555 0.206985
vt 0.630097 0.628833
vt 0.630097 0.206985
vt 0.588214 0.628833
vt 0.588214 0.206985
vt 0.544827 0.071370
vt 0.588214 0.071370
vt 0.630097 0.071370
vt 0.671555 0.071370
vt 0.710853 0.071370
vt 0.024967 0.071370
vt 0.064187 0.071370
vt 0.106348 0.071370
vt 0.148867 0.071370
vt 0.192055 0.071370
vt 0.235713 0.071370
vt 0.279657 0.071370
vt 0.323733 0.071370
vt 0.368391 0.071370
vt 0.413131 0.071370
vt 0.457554 0.071370
vt 0.501556 0.071370
vt 0.501556 0.013959
vt 0.544827 0.013959
vt 0.457554 0.013959
vt 0.413131 0.013959
vt 0.368391 0.013959
vt 0.323733 0.013959
vt 0.279657 0.013959
vt 0.235713 0.013959
vt 0.192055 0.013959
vt 0.148867 0.013959
vt 0.106348 0.013959
vt 0.064187 0.013959
vt 0.024967 0.013959
vt 0.671555 0.013959
vt 0.710853 0.013959
vt 0.630097 0.013959
vt 0.588214 0.013959
vt 0.567995 0.768539
vt 0.600157 0.720405
vt 0.616129 0.736377
vt 0.624773 0.757245
vt 0.624773 0.779833
vt 0.616129 0.800700
vt 0.600157 0.816672
vt 0.579289 0.825316
vt 0.556701 0.825316
vt 0.535833 0.816672
vt 0.519861 0.800700
vt 0.511218 0.779833
vt 0.511218 0.757245
vt 0.519861 0.736377
vt 0.535833 0.720405
vt 0.556701 0.711761
vt 0.579289 0.711761
vn 1.000000 0.000000 0.000000
vn 0.665700 -0.285531 -0.689383
vn 0.665700 0.000000 -0.746178
vn 0.665700 -0.527635 -0.527635
vn 0.665700 -0.689383 -0.285531
vn 0.665700 -0.746178 0.000000
vn 0.665700 -0.689383 0.285531
vn 0.665700 -0.527635 0.527635
vn 0.665700 -0.285531 0.689383
vn 0.665700 0.000000 0.746178
vn 0.665700 0.285531 0.689383
vn 0.665700 0.527635 0.527635
vn 0.665700 0.689383 0.285531
vn 0.665700 0.746178 0.000000
vn 0.665700 0.689383 -0.285531
vn 0.665700 0.527635 -0.527635
vn 0.665700 0.285531 -0.689383
vn -0.164068 0.000000 -0.986419
vn -0.164068 -0.377483 -0.911344
vn -0.164068 -0.697501 -0.697501
vn -0.164068 -0.911344 -0.377483
vn -0.164068 -0.986419 0.000000
vn -0.164068 -0.911344 0.377483
vn -0.164068 -0.697501 0.697501
vn -0.164068 -0.377483 0.911344
vn -0.164068 0.000000 0.986419
vn -0.164068 0.377483 0.911344
vn -0.164068 0.697501 0.697501
vn -0.164068 0.911344 0.377483
vn -0.164068 0.986419 0.000000
vn -0.164068 0.911344 -0.377483
vn -0.164068 0.697501 -0.697501
vn -0.164068 0.377483 -0.911344
vn -0.515702 0.000000 -0.856746
vn -0.515702 0.327860 -0.791528
vn -0.515702 0.605792 -0.605792
vn -0.515702 0.791528 -0.327860
vn -0.515702 0.856746 0.000000
vn -0.515702 0.791528 0.327860
vn -0.515702 0.605792 0.605792
vn -0.515702 0.327860 0.791528
vn -0.515702 0.000000 0.856746
vn -0.515702 -0.327860 0.791528
vn -0.515702 -0.605792 0.605792
vn -0.515702 -0.791528 0.327860
vn -0.515702 -0.856746 0.000000
vn -0.515702 -0.791528 -0.327860
vn -0.515702 -0.605792 -0.605792
vn -0.515702 -0.327860 -0.791528
vn -0.904172 -0.163427 -0.394574
vn -0.904172 0.000000 -0.427076
vn -0.904172 -0.301981 -0.301981
vn -0.904172 -0.394574 -0.163427
vn -0.904172 -0.427107 0.000000
vn -0.904172 -0.394574 0.163427
vn -0.904172 -0.301981 0.301981
vn -0.904172 -0.163427 0.394574
vn -0.904172 0.000000 0.427076
vn -0.904172 0.163427 0.394574
vn -0.904172 0.301981 0.301981
vn -0.904172 0.394574 0.163427
vn -0.904172 0.427076 0.000000
vn -0.904172 0.394574 -0.163427
vn -0.904172 0.301981 -0.301981
vn -0.904172 0.163427 -0.394574
vn -1.000000 0.000000 0.000000
usemtl None_untitled
s 1
f 33/1/1 18/2/2 17/3/3
f 33/1/1 19/4/4 18/2/2
f 33/1/1 20/5/5 19/4/4
f 33/1/1 21/6/6 20/5/5
f 33/1/1 22/7/7 21/6/6
f 33/1/1 23/8/8 22/7/7
f 33/1/1 24/9/9 23/8/8
f 33/1/1 25/10/10 24/9/9
f 33/1/1 26/11/11 25/10/10
f 33/1/1 27/12/12 26/11/11
f 33/1/1 28/13/13 27/12/12
f 33/1/1 29/14/14 28/13/13
f 33/1/1 30/15/15 29/14/14
f 33/1/1 31/16/16 30/15/15
f 33/1/1 32/17/17 31/16/16
f 33/1/1 17/3/3 32/17/17
f 1/18/18 17/19/3 18/20/2 2/21/19
f 2/21/19 18/20/2 19/22/4 3/23/20
f 3/23/20 19/22/4 20/24/5 4/25/21
f 4/25/21 20/24/5 21/26/6 5/27/22
f 5/27/22 21/26/6 22/28/7 6/29/23
f 6/29/23 22/28/7 23/30/8 7/31/24
f 7/31/24 23/30/8 24/32/9 8/33/25
f 8/33/25 24/32/9 25/34/10 9/35/26
f 9/35/26 25/34/10 26/36/11 10/37/27
f 10/37/27 26/36/11 27/38/12 11/39/28
f 11/39/28 27/38/12 28/40/13 12/41/29
f 12/41/29 28/40/13 29/42/14 13/43/30
f 13/44/30 29/45/14 30/46/15 14/47/31
f 14/47/31 30/46/15 31/48/16 15/49/32
f 15/49/32 31/48/16 32/50/17 16/51/33
f 17/19/3 1/18/18 16/51/33 32/50/17
f 16/51/33 1/18/18 34/52/34 35/53/35
f 15/49/32 16/51/33 35/53/35 36/54/36
f 14/47/31 15/49/32 36/54/36 37/55/37
f 13/44/30 14/47/31 37/55/37 38/56/38
f 12/41/29 13/43/30 38/57/38 39/58/39
f 11/39/28 12/41/29 39/58/39 40/59/40
f 10/37/27 11/39/28 40/59/40 41/60/41
f 9/35/26 10/37/27 41/60/41 42/61/42
f 8/33/25 9/35/26 42/61/42 43/62/43
f 7/31/24 8/33/25 43/62/43 44/63/44
f 6/29/23 7/31/24 44/63/44 45/64/45
f 5/27/22 6/29/23 45/64/45 46/65/46
f 4/25/21 5/27/22 46/65/46 47/66/47
f 3/23/20 4/25/21 47/66/47 48/67/48
f 2/21/19 3/23/20 48/67/48 49/68/49
f 1/18/18 2/21/19 49/68/49 34/52/34
f 34/52/34 49/68/49 51/69/50 50/70/51
f 49/68/49 48/67/48 52/71/52 51/69/50
f 48/67/48 47/66/47 53/72/53 52/71/52
f 47/66/47 46/65/46 54/73/54 53/72/53
f 46/65/46 45/64/45 55/74/55 54/73/54
f 45/64/45 44/63/44 56/75/56 55/74/55
f 44/63/44 43/62/43 57/76/57 56/75/56
f 43/62/43 42/61/42 58/77/58 57/76/57
f 42/61/42 41/60/41 59/78/59 58/77/58
f 41/60/41 40/59/40 60/79/60 59/78/59
f 40/59/40 39/58/39 61/80/61 60/79/60
f 39/58/39 38/57/38 62/81/62 61/80/61
f 38/56/38 37/55/37 63/82/63 62/83/62
f 37/55/37 36/54/36 64/84/64 63/82/63
f 36/54/36 35/53/35 65/85/65 64/84/64
f 35/53/35 34/52/34 50/70/51 65/85/65
f 66/86/66 50/87/51 51/88/50
f 66/86/66 51/88/50 52/89/52
f 66/86/66 52/89/52 53/90/53
f 66/86/66 53/90/53 54/91/54
f 66/86/66 54/91/54 55/92/55
f 66/86/66 55/92/55 56/93/56
f 66/86/66 56/93/56 57/94/57
f 66/86/66 57/94/57 58/95/58
f 66/86/66 58/95/58 59/96/59
f 66/86/66 59/96/59 60/97/60
f 66/86/66 60/97/60 61/98/61
f 66/86/66 61/98/61 62/99/62
f 66/86/66 62/99/62 63/100/63
f 66/86/66 63/100/63 64/101/64
f 66/86/66 64/101/64 65/102/65
f 65/102/65 50/87/51 66/86/66
