# Blender v2.57 (sub 0) OBJ File: 'corridor_master.blend'
# www.blender.org
mtllib room_wallDivider.mtl
g Cube.027_Cube.033
v -10.000000 0.000000 6.000000
v -10.000000 0.000000 7.000000
v -11.000000 0.000000 7.000000
v -11.000000 0.000000 6.000000
v -10.799999 0.500000 6.000000
v -10.800001 0.500000 7.000000
v -10.799999 3.000000 6.000000
v -10.800001 3.000000 7.000000
vt 0.000000 0.000000
vt 1.000000 0.000000
vt 1.000000 1.000000
vt 0.000000 1.000000
vt 0.021077 0.216127
vt 0.279447 0.216128
vt 0.279447 0.763872
vt 0.021076 0.763871
vt 0.964128 0.216128
vt 0.964128 0.763873
vn 0.000000 -1.000000 0.000000
vn 0.529999 0.847998 0.000000
vn 1.000000 0.000000 0.000002
usemtl (null)
s off
f 1/1/1 2/2/1 3/3/1 4/4/1
usemtl None_untitled.010
f 1/5/2 5/6/2 6/7/2 2/8/2
f 6/7/3 5/6/3 7/9/3 8/10/3
