# Blender v2.57 (sub 0) OBJ File: 'crate.blend'
# www.blender.org
mtllib crate.mtl
g Cube.001_Cube.000
v 0.676670 -0.509429 1.726414
v 0.676670 -0.509429 3.726414
v -1.323330 -0.509429 3.726414
v -1.323330 -0.509429 1.726414
v 0.676670 0.690571 1.726415
v 0.676669 0.690571 3.726415
v -1.323330 0.690571 3.726414
v -1.323330 0.690571 1.726414
v 0.776671 0.858571 1.626415
v -1.423330 0.858571 1.626414
v -1.423330 0.858571 3.826414
v 0.776669 0.858571 3.826415
v -1.423330 -0.677429 3.826414
v -1.423330 -0.677429 1.626414
v 0.776670 -0.677429 1.626414
v 0.776670 -0.677429 3.826414
v -1.423330 -1.071030 3.826414
v 0.776670 -1.071030 3.826414
v 0.776670 -1.071030 1.626414
v -1.423330 -1.071030 1.626414
v 0.776669 1.252171 3.826415
v 0.776671 1.252171 1.626415
v -1.423330 1.252171 3.826414
v -1.423330 1.252171 1.626414
vt 0.635345 0.444997
vt 0.635345 0.798203
vt 0.046670 0.798203
vt 0.046670 0.444998
vt 0.635345 0.798202
vt 0.046670 0.798202
vt 0.046670 0.444997
vt 0.664779 0.855748
vt 0.017236 0.855748
vt 0.664779 0.855749
vt 0.017236 0.855749
vt 0.017236 0.387451
vt 0.664779 0.387451
vt 0.017237 0.387452
vt 0.664779 0.387452
vt 0.017236 0.387452
vt 0.017236 0.271600
vt 0.664779 0.271600
vt 0.017237 0.271600
vt 0.664779 0.971600
vt 0.017236 0.971600
vt 0.017236 0.971599
vt 1.000000 0.300000
vt 0.700000 0.300000
vt 0.700000 0.000000
vt 1.000000 0.000000
vn 1.000000 -0.000000 0.000000
vn -0.000000 -0.000000 1.000000
vn -1.000000 -0.000000 -0.000000
vn 0.000000 0.000000 -1.000000
vn 0.000000 -0.511484 -0.859293
vn -0.859293 -0.511484 -0.000000
vn -0.000000 -0.511485 0.859292
vn 0.859293 -0.511484 0.000001
vn -0.859293 0.511484 -0.000000
vn 0.000000 0.511484 -0.859293
vn 0.859293 0.511484 -0.000000
vn -0.000000 0.511484 0.859293
vn 1.000000 0.000000 0.000001
vn -0.000001 0.000000 1.000000
vn 0.000000 -1.000000 0.000000
vn 0.000000 1.000000 0.000000
usemtl Material_weaponCrate_tex.png
s off
f 1/1/1 5/2/1 6/3/1 2/4/1
f 2/1/2 6/5/2 7/6/2 3/7/2
f 3/1/3 7/2/3 8/3/3 4/7/3
f 5/6/4 1/7/4 4/1/4 8/5/4
f 5/6/5 8/5/5 10/8/5 9/9/5
f 8/3/6 7/2/6 11/10/6 10/9/6
f 7/6/7 6/5/7 12/8/7 11/9/7
f 6/3/8 5/2/8 9/10/8 12/11/8
f 3/1/9 4/7/9 14/12/9 13/13/9
f 4/1/10 1/7/10 15/14/10 14/15/10
f 1/1/11 2/4/11 16/16/11 15/13/11
f 2/1/12 3/7/12 13/12/12 16/13/12
f 16/13/2 13/12/2 17/17/2 18/18/2
f 15/13/1 16/16/1 18/17/1 19/18/1
f 14/15/4 15/14/4 19/19/4 20/18/4
f 13/13/3 14/12/3 20/17/3 17/18/3
f 12/11/13 9/10/13 22/20/13 21/21/13
f 11/9/14 12/8/14 21/20/14 23/21/14
f 10/9/3 11/10/3 23/20/3 24/22/3
f 9/9/4 10/8/4 24/20/4 22/21/4
f 19/23/15 18/24/15 17/25/15 20/26/15
f 22/23/16 24/24/16 23/25/16 21/26/16
